<svg xmlns="http://www.w3.org/2000/svg" width="16" height="16" viewBox="0 0 16 16">
  <defs>
    <style>
      .cls-1 {
        fill: #fff;
        fill-rule: evenodd;
      }
    </style>
  </defs>
  <path id="访问控制icon" class="cls-1" d="M1494.44,1087h-12.88a0.559,0.559,0,0,1-.56-0.56v-12.88a0.559,0.559,0,0,1,.56-0.56h12.88a0.559,0.559,0,0,1,.56.56v12.88A0.559,0.559,0,0,1,1494.44,1087Zm-0.7-12.74h-11.48v11.48h11.48v-11.48Zm-8.75,5.27v-3.87a0.137,0.137,0,0,1,.14-0.14h0.84a0.137,0.137,0,0,1,.14.14v3.87a1.818,1.818,0,0,1,0,3.46v1.35a0.137,0.137,0,0,1-.14.14h-0.84a0.137,0.137,0,0,1-.14-0.14v-1.35A1.818,1.818,0,0,1,1484.99,1079.53Zm0,2.02c0.01,0.01.01,0.02,0.02,0.03v0.01l0.02,0.03v0.01a0.022,0.022,0,0,1,.02.02l0.01,0.01a0.022,0.022,0,0,0,.02.02l0.01,0.01,0.02,0.02,0.01,0.01a0.022,0.022,0,0,0,.02.02l0.03,0.03h0.01c0.01,0.01.02,0.01,0.03,0.02h0a0.076,0.076,0,0,0,.04.02v0.01c0.01,0,.02.01,0.03,0.01l0.01,0.01a0.227,0.227,0,0,0,.04.01c0.01,0,.02.01,0.03,0.01s0.01,0,.01.01h0.04a0.06,0.06,0,0,0,.04.01h0.01c0.01,0,.02.01,0.03,0.01h0.1a0.037,0.037,0,0,1,.03-0.01h0.01a0.048,0.048,0,0,0,.04-0.01h0.04a0.01,0.01,0,0,1,.01-0.01c0.01,0,.03-0.01.04-0.01s0.02-.01.03-0.01l0.01-.01a0.037,0.037,0,0,1,.03-0.01,0.01,0.01,0,0,1,.01-0.01,0.053,0.053,0,0,0,.03-0.02h0.01l0.02-.02h0.01l0.03-.03c0.01-.01.02-0.01,0.03-0.02l0.01-.01,0.02-.02v-0.01a0.053,0.053,0,0,0,.03-0.02v-0.01a0.038,0.038,0,0,1,.02-0.02c0-.01,0-0.01.01-0.01l0.02-.03v-0.01a0.053,0.053,0,0,1,.02-0.03,0.727,0.727,0,0,0,.07-0.29,0.689,0.689,0,0,0-.07-0.29c-0.01-.01-0.01-0.02-0.02-0.03v-0.01l-0.02-.03c-0.01,0-.01,0-0.01-0.01a0.038,0.038,0,0,1-.02-0.02v-0.01l-0.03-.03-0.03-.03a0.053,0.053,0,0,0-.03-0.02l-0.03-.03h-0.01a0.038,0.038,0,0,0-.02-0.02h-0.01a0.053,0.053,0,0,0-.03-0.02,0.01,0.01,0,0,1-.01-0.01c-0.01,0-.02-0.01-0.03-0.01l-0.01-.01c-0.01,0-.02-0.01-0.03-0.01a0.06,0.06,0,0,0-.04-0.01,0.01,0.01,0,0,1-.01-0.01h-0.04a0.048,0.048,0,0,0-.04-0.01h-0.01a0.037,0.037,0,0,0-.03-0.01h-0.1a0.037,0.037,0,0,0-.03.01h-0.01a0.06,0.06,0,0,0-.04.01h-0.04c0,0.01,0,.01-0.01.01a0.037,0.037,0,0,0-.03.01,0.227,0.227,0,0,0-.04.01l-0.01.01c-0.01,0-.02.01-0.03,0.01v0.01a0.052,0.052,0,0,0-.04.02h0c-0.01.01-.02,0.01-0.03,0.02h-0.01l-0.03.03a0.038,0.038,0,0,0-.02.02l-0.04.03c-0.01.01-.01,0.02-0.02,0.03l-0.01.01a0.022,0.022,0,0,1-.02.02v0.01l-0.02.03v0.01c-0.01.01-.01,0.02-0.02,0.03a0.689,0.689,0,0,0-.07.29A0.727,0.727,0,0,0,1484.99,1081.55Zm4.9-4.54v-1.35a0.137,0.137,0,0,1,.14-0.14h0.84a0.137,0.137,0,0,1,.14.14v1.35a1.818,1.818,0,0,1,0,3.46v3.87a0.137,0.137,0,0,1-.14.14h-0.84a0.137,0.137,0,0,1-.14-0.14v-3.87A1.818,1.818,0,0,1,1489.89,1077.01Zm0,2.02c0.01,0.01.01,0.02,0.02,0.03v0.01l0.02,0.03,0.01,0.01a0.035,0.035,0,0,1,.01.02l0.01,0.01a0.022,0.022,0,0,0,.02.02l0.04,0.04a0.022,0.022,0,0,0,.02.02l0.03,0.03h0.01c0.01,0.01.02,0.01,0.03,0.02h0a0.076,0.076,0,0,0,.04.02v0.01c0.01,0,.02.01,0.03,0.01l0.01,0.01c0.01,0,.03.01,0.04,0.01s0.02,0.01.03,0.01,0.01,0,.01.01h0.04a0.076,0.076,0,0,0,.04.01h0.01c0.01,0,.02.01,0.03,0.01h0.1a0.037,0.037,0,0,1,.03-0.01h0.01a0.048,0.048,0,0,0,.04-0.01h0.04a0.01,0.01,0,0,1,.01-0.01c0.01,0,.03-0.01.04-0.01s0.02-.01.03-0.01l0.01-.01a0.037,0.037,0,0,1,.03-0.01,0.01,0.01,0,0,1,.01-0.01,0.053,0.053,0,0,0,.03-0.02h0.01l0.02-.02h0.01l0.03-.03c0.01-.01.02-0.01,0.03-0.02l0.03-.04a0.053,0.053,0,0,0,.03-0.02v-0.01a0.038,0.038,0,0,1,.02-0.02c0-.01,0-0.01.01-0.01l0.02-.03v-0.01c0-.01.01-0.02,0.01-0.03a0.6,0.6,0,0,0,.08-0.29,0.574,0.574,0,0,0-.08-0.29c0-.01-0.01-0.02-0.01-0.03v-0.01l-0.02-.03c-0.01,0-.01,0-0.01-0.01a0.038,0.038,0,0,1-.02-0.02v-0.01l-0.03-.03h0l-0.02-.02-0.01-.01a0.053,0.053,0,0,0-.03-0.02l-0.03-.03h-0.01a0.038,0.038,0,0,0-.02-0.02h-0.01a0.053,0.053,0,0,0-.03-0.02,0.01,0.01,0,0,0-.01-0.01c-0.01,0-.02-0.01-0.03-0.01l-0.01-.01c-0.01,0-.02-0.01-0.03-0.01a0.06,0.06,0,0,0-.04-0.01,0.01,0.01,0,0,1-.01-0.01h-0.04a0.048,0.048,0,0,0-.04-0.01h-0.01a0.037,0.037,0,0,0-.03-0.01h-0.1a0.037,0.037,0,0,0-.03.01h-0.01a0.076,0.076,0,0,0-.04.01h-0.04c0,0.01,0,.01-0.01.01a0.037,0.037,0,0,0-.03.01c-0.01,0-.03.01-0.04,0.01l-0.01.01c-0.01,0-.02.01-0.03,0.01v0.01a0.052,0.052,0,0,0-.04.02h0c-0.01.01-.02,0.01-0.03,0.02h-0.01l-0.03.03a0.038,0.038,0,0,0-.02.02l-0.01.01-0.02.02h-0.01c-0.01.01-.01,0.02-0.02,0.03l-0.01.01a0.035,0.035,0,0,1-.01.02l-0.01.01-0.02.03v0.01c-0.01.01-.01,0.02-0.02,0.03a0.689,0.689,0,0,0-.07.29A0.727,0.727,0,0,0,1489.89,1079.03Z" transform="translate(-1480 -1072)"/>
</svg>
