<svg xmlns="http://www.w3.org/2000/svg" width="16" height="16" viewBox="0 0 16 16">
  <defs>
    <style>
      .cls-1 {
        fill: #00a2ff;
        fill-rule: evenodd;
      }
    </style>
  </defs>
  <path id="加固策略icon" class="cls-1" d="M1866.94,786.212l-3.57,2.756a0.164,0.164,0,0,1-.09.032,0.17,0.17,0,0,1-.1-0.032l-3.57-2.756a0.137,0.137,0,0,1-.06-0.116v-4.607a0.146,0.146,0,0,1,.1-0.138l3.58-1.223a0.115,0.115,0,0,1,.05-0.007,0.094,0.094,0,0,1,.04.007l3.58,1.223a0.146,0.146,0,0,1,.1.138V786.1A0.137,0.137,0,0,1,1866.94,786.212Zm-1.1-4.02-2.56-.881-2.57.881v3.425l2.57,1.98,2.56-1.98v-3.425Zm-3.06,3.738-1.38-1.874a0.148,0.148,0,0,1,.13-0.233h0.82a0.148,0.148,0,0,1,.12.06l0.43,0.586,1.18-1.611a0.145,0.145,0,0,1,.12-0.06h0.82a0.148,0.148,0,0,1,.13.232l-2.13,2.9A0.15,0.15,0,0,1,1862.78,785.93Zm-6.95-8.71v-0.881a0.15,0.15,0,0,1,.15-0.147h7.15a0.15,0.15,0,0,1,.15.147v0.881a0.15,0.15,0,0,1-.15.146h-7.15A0.15,0.15,0,0,1,1855.83,777.22Zm3.57,2.788h-3.42a0.15,0.15,0,0,1-.15-0.146v-0.881a0.15,0.15,0,0,1,.15-0.147h3.42a0.144,0.144,0,0,1,.15.147v0.881A0.144,0.144,0,0,1,1859.4,780.008Zm6.56-.11h-1.05a0.142,0.142,0,0,1-.14-0.146V774.32h-10.43v12.918h5.06a0.144,0.144,0,0,1,.15.147v1.027a0.144,0.144,0,0,1-.15.147h-5.8a0.594,0.594,0,0,1-.6-0.587V773.586a0.6,0.6,0,0,1,.6-0.587h11.91a0.586,0.586,0,0,1,.59.587v6.166A0.142,0.142,0,0,1,1865.96,779.9Z" transform="translate(-1852 -773)"/>
</svg>
