<svg xmlns="http://www.w3.org/2000/svg" width="16" height="16" viewBox="0 0 16 16">
  <metadata><?xpacket begin="﻿" id="W5M0MpCehiHzreSzNTczkc9d"?>
<x:xmpmeta xmlns:x="adobe:ns:meta/" x:xmptk="Adobe XMP Core 5.6-c138 79.159824, 2016/09/14-01:09:01        ">
   <rdf:RDF xmlns:rdf="http://www.w3.org/1999/02/22-rdf-syntax-ns#">
      <rdf:Description rdf:about=""
            xmlns:xmp="http://ns.adobe.com/xap/1.0/">
         <xmp:CreatorTool>Adobe Photoshop CC 2017 (Windows)</xmp:CreatorTool>
      </rdf:Description>
   </rdf:RDF>
</x:xmpmeta>
                                                                                                    
                                                                                                    
                                                                                                    
                                                                                                    
                                                                                                    
                                                                                                    
                                                                                                    
                                                                                                    
                                                                                                    
                                                                                                    
                                                                                                    
                                                                                                    
                                                                                                    
                                                                                                    
                                                                                                    
                                                                                                    
                                                                                                    
                                                                                                    
                                                                                                    
                                                                                                    
                           
<?xpacket end="w"?></metadata>
<defs>
    <style>
      .cls-1 {
        fill: #fff;
        fill-rule: evenodd;
      }
    </style>
  </defs>
  <path id="连接记录icon" class="cls-1" d="M2190.96,2846.47h-0.42a0.141,0.141,0,0,1-.14.12h-11.8a0.58,0.58,0,0,1-.6-0.55v-13.49a0.58,0.58,0,0,1,.6-0.55h11.91a0.58,0.58,0,0,1,.6.55v13.78A0.145,0.145,0,0,1,2190.96,2846.47Zm-1.19-13.23h-10.43v12.11h10.43v-12.11Zm-8.79,1.75h7.15a0.145,0.145,0,0,1,.15.14v0.83a0.144,0.144,0,0,1-.15.13h-7.15a0.144,0.144,0,0,1-.15-0.13v-0.83A0.145,0.145,0,0,1,2180.98,2834.99ZM2188,2839h-7v-1h7v1Zm0,3h-7v-1h7v1Z" transform="translate(-2176.545 -2831.295)"/>
</svg>
