<svg xmlns="http://www.w3.org/2000/svg" width="16" height="16" viewBox="0 0 16 16">
  <metadata><?xpacket begin="﻿" id="W5M0MpCehiHzreSzNTczkc9d"?>
<x:xmpmeta xmlns:x="adobe:ns:meta/" x:xmptk="Adobe XMP Core 5.6-c138 79.159824, 2016/09/14-01:09:01        ">
   <rdf:RDF xmlns:rdf="http://www.w3.org/1999/02/22-rdf-syntax-ns#">
      <rdf:Description rdf:about=""/>
   </rdf:RDF>
</x:xmpmeta>
                                                                                                    
                                                                                                    
                                                                                                    
                                                                                                    
                                                                                                    
                                                                                                    
                                                                                                    
                                                                                                    
                                                                                                    
                                                                                                    
                                                                                                    
                                                                                                    
                                                                                                    
                                                                                                    
                                                                                                    
                                                                                                    
                                                                                                    
                                                                                                    
                                                                                                    
                                                                                                    
                           
<?xpacket end="w"?></metadata>
<defs>
    <style>
      .cls-1 {
        fill: #fff;
        fill-rule: evenodd;
      }
    </style>
  </defs>
  <path id="执行保护icon" class="cls-1" d="M516.942,418.387l-3.575,2.584a0.156,0.156,0,0,1-.09.029,0.159,0.159,0,0,1-.092-0.029l-3.574-2.584a0.131,0.131,0,0,1-.058-0.109v-4.319a0.139,0.139,0,0,1,.1-0.129l3.575-1.147a0.157,0.157,0,0,1,.049-0.007,0.164,0.164,0,0,1,.048.007l3.574,1.147a0.139,0.139,0,0,1,.1.129v4.319A0.134,0.134,0,0,1,516.942,418.387Zm-1.1-3.769-2.569-.826-2.57.826v3.212l2.57,1.856,2.569-1.856v-3.212Zm-3.067,3.5-1.374-1.757a0.138,0.138,0,0,1,.121-0.218h0.823a0.153,0.153,0,0,1,.121.057l0.426,0.549,1.183-1.511a0.151,0.151,0,0,1,.121-0.057h0.824a0.138,0.138,0,0,1,.121.219l-2.126,2.718A0.155,0.155,0,0,1,512.779,418.122ZM506,413v-1h3v1h-3Zm-0.171-3.044v-0.825a0.145,0.145,0,0,1,.149-0.138h7.15a0.145,0.145,0,0,1,.149.138v0.825a0.145,0.145,0,0,1-.149.138h-7.15A0.145,0.145,0,0,1,505.829,409.956Zm10.128,2.512h-1.042a0.144,0.144,0,0,1-.149-0.138v-5.092H504.34v12.11H509.4a0.144,0.144,0,0,1,.149.138v0.963a0.144,0.144,0,0,1-.149.138H503.6a0.574,0.574,0,0,1-.6-0.55V406.55a0.574,0.574,0,0,1,.6-0.55H515.51a0.574,0.574,0,0,1,.6.55v5.78A0.144,0.144,0,0,1,515.957,412.468Z" transform="translate(-502 -405.5)"/>
</svg>
