<svg xmlns="http://www.w3.org/2000/svg" width="16" height="16" viewBox="0 0 16 16">
  <defs>
    <style>
      .cls-1 {
        fill: #fff;
        fill-rule: evenodd;
      }
    </style>
  </defs>
  <path id="文件标记icon" class="cls-1" d="M1491.28,878.33v-0.881a0.15,0.15,0,0,0-.15-0.146h-7.15a0.15,0.15,0,0,0-.15.146v0.881a0.15,0.15,0,0,0,.15.147h7.15a0.15,0.15,0,0,0,.15-0.147h0Zm-7.3,1.615a0.15,0.15,0,0,0-.15.147v0.88a0.15,0.15,0,0,0,.15.147h3.42a0.144,0.144,0,0,0,.15-0.147v-0.88a0.144,0.144,0,0,0-.15-0.147h-3.42Zm7,2.128a3.964,3.964,0,1,0,4.02,3.963,3.992,3.992,0,0,0-4.02-3.963h0Zm2,5.936a2.852,2.852,0,0,1-2,.816,2.818,2.818,0,0,1-2-.816,2.759,2.759,0,0,1,0-3.945,2.814,2.814,0,0,1,2-.817,2.849,2.849,0,0,1,2,.817,2.759,2.759,0,0,1,0,3.945h0Zm0,0-0.35-3.367h-0.82a0.148,0.148,0,0,0-.12.06l-1.18,1.611-0.43-.585a0.16,0.16,0,0,0-.12-0.06h-0.83a0.147,0.147,0,0,0-.12.232l1.38,1.874a0.149,0.149,0,0,0,.24,0l2.12-2.9a0.142,0.142,0,0,0-.12-0.233h0Zm0,0-5.97,3.6h-4.32V875.321h10.43v6.312a0.143,0.143,0,0,0,.14.147h1.05a0.151,0.151,0,0,0,.15-0.147v-7.046a0.594,0.594,0,0,0-.6-0.587H1481.6a0.594,0.594,0,0,0-.6.587v14.385a0.594,0.594,0,0,0,.6.587h5.06a0.15,0.15,0,0,0,.15-0.146v-1.028a0.15,0.15,0,0,0-.15-0.147h0Zm0,0" transform="translate(-1480 -874)"/>
</svg>
