<svg xmlns="http://www.w3.org/2000/svg" width="16" height="16" viewBox="0 0 16 16">
  <metadata><?xpacket begin="﻿" id="W5M0MpCehiHzreSzNTczkc9d"?>
<x:xmpmeta xmlns:x="adobe:ns:meta/" x:xmptk="Adobe XMP Core 5.6-c138 79.159824, 2016/09/14-01:09:01        ">
   <rdf:RDF xmlns:rdf="http://www.w3.org/1999/02/22-rdf-syntax-ns#">
      <rdf:Description rdf:about=""/>
   </rdf:RDF>
</x:xmpmeta>
                                                                                                    
                                                                                                    
                                                                                                    
                                                                                                    
                                                                                                    
                                                                                                    
                                                                                                    
                                                                                                    
                                                                                                    
                                                                                                    
                                                                                                    
                                                                                                    
                                                                                                    
                                                                                                    
                                                                                                    
                                                                                                    
                                                                                                    
                                                                                                    
                                                                                                    
                                                                                                    
                           
<?xpacket end="w"?></metadata>
<defs>
    <style>
      .cls-1 {
        fill: #fff;
        fill-rule: evenodd;
      }
    </style>
  </defs>
  <path id="内核icon" class="cls-1" d="M507.416,472v2.219h1.856V472h1.211v2.219h1.855V472h1.211v2.219h2.258v2.1H518v1.211h-2.193v1.856H518v1.21h-2.193v1.856H518v1.211h-2.193v2.118h-2.26V488h-1.21v-2.221h-1.855V488h-1.21v-2.221h-1.856V488h-1.209v-2.221h-1.959v-2.118H502v-1.21h2.247V480.6H502v-1.211h2.247v-1.855H502v-1.211h2.247v-2.1h1.959V472h1.21Zm7.179,3.43h-9.138v9.139H514.6V475.43Zm-1.855,1.856v5.426h-5.426v-5.426h5.426Zm-1.211,1.21h-3.006V481.5h3.006V478.5Zm0,0" transform="translate(-502 -472)"/>
</svg>
