<svg xmlns="http://www.w3.org/2000/svg" width="16" height="16" viewBox="0 0 16 16">
  <defs>
    <style>
      .cls-1 {
        fill: #fff;
        fill-rule: evenodd;
      }
    </style>
  </defs>
  <path id="隐私清理icon" class="cls-1" d="M1494.99,1020.46l-0.95-5.43h0.32a0.467,0.467,0,0,0,.47-0.46v-3.41a0.461,0.461,0,0,0-.47-0.46h-4.45v-3.24a0.467,0.467,0,0,0-.47-0.46h-2.89a0.467,0.467,0,0,0-.47.46v3.24h-4.44a0.461,0.461,0,0,0-.47.46v3.41a0.467,0.467,0,0,0,.47.46h0.32l-0.95,5.43a0.22,0.22,0,0,0-.01.08,0.467,0.467,0,0,0,.47.46h13.06a0.22,0.22,0,0,0,.08-0.01,0.449,0.449,0,0,0,.38-0.53h0Zm-12.55-8.52h4.91v-3.7h1.3v3.7h4.91v1.85h-11.12v-1.85Zm8.45,7.82v-2.78a0.143,0.143,0,0,0-.14-0.14h-0.87a0.152,0.152,0,0,0-.15.14v2.78h-3.46v-2.78a0.152,0.152,0,0,0-.15-0.14h-0.87a0.143,0.143,0,0,0-.14.14v2.78h-2.7l0.82-4.62h9.54l0.81,4.62h-2.69Zm0,0" transform="translate(-1480 -1006)"/>
</svg>
