<svg xmlns="http://www.w3.org/2000/svg" width="16" height="16" viewBox="0 0 16 16">
  <metadata><?xpacket begin="﻿" id="W5M0MpCehiHzreSzNTczkc9d"?>
<x:xmpmeta xmlns:x="adobe:ns:meta/" x:xmptk="Adobe XMP Core 5.6-c138 79.159824, 2016/09/14-01:09:01        ">
   <rdf:RDF xmlns:rdf="http://www.w3.org/1999/02/22-rdf-syntax-ns#">
      <rdf:Description rdf:about=""/>
   </rdf:RDF>
</x:xmpmeta>
                                                                                                    
                                                                                                    
                                                                                                    
                                                                                                    
                                                                                                    
                                                                                                    
                                                                                                    
                                                                                                    
                                                                                                    
                                                                                                    
                                                                                                    
                                                                                                    
                                                                                                    
                                                                                                    
                                                                                                    
                                                                                                    
                                                                                                    
                                                                                                    
                                                                                                    
                                                                                                    
                           
<?xpacket end="w"?></metadata>
<defs>
    <style>
      .cls-1 {
        fill: #fff;
        fill-rule: evenodd;
      }
    </style>
  </defs>
  <path id="刷新icon" class="cls-1" d="M1872.76,958.234l-1.03.84a7.559,7.559,0,0,0-6.05-3.074,8.007,8.007,0,0,0,0,16,7.713,7.713,0,0,0,7.22-5.259,0.168,0.168,0,0,0-.09-0.2l-1.04-.372a0.14,0.14,0,0,0-.18.092c-0.04.1-.07,0.19-0.11,0.284a6.568,6.568,0,0,1-1.35,2.083,6.3,6.3,0,0,1-2,1.406,6.072,6.072,0,0,1-4.89,0,6.233,6.233,0,0,1-2-1.406,6.568,6.568,0,0,1-1.35-2.083,6.883,6.883,0,0,1,0-5.1,6.572,6.572,0,0,1,1.35-2.084,6.3,6.3,0,0,1,2-1.406,6.072,6.072,0,0,1,4.89,0,6.249,6.249,0,0,1,2,1.406,6.987,6.987,0,0,1,.51.6l-1.1.895a0.153,0.153,0,0,0,.05.269l3.21,0.819a0.152,0.152,0,0,0,.19-0.147l0.01-3.446a0.148,0.148,0,0,0-.24-0.118h0Zm0,0" transform="translate(-1857.5 -956)"/>
</svg>
