<svg xmlns="http://www.w3.org/2000/svg" width="12" height="14" viewBox="0 0 12 14">
  <defs>
    <style>
      .cls-1 {
        fill: #fff;
        fill-rule: evenodd;
      }
    </style>
  </defs>
  <path id="用户icon" class="cls-1" d="M8030.53,1876.43a6.694,6.694,0,0,0-1.29-2.11,6.036,6.036,0,0,0-1.9-1.41,0.031,0.031,0,0,0-.02-0.01,4.516,4.516,0,0,0,1.64-3.54,3.978,3.978,0,1,0-7.92,0,4.516,4.516,0,0,0,1.64,3.54,0.031,0.031,0,0,0-.02.01,5.919,5.919,0,0,0-1.9,1.42,6.538,6.538,0,0,0-1.29,2.1,7.139,7.139,0,0,0-.47,2.43,0.142,0.142,0,0,0,.13.14h0.96a0.127,0.127,0,0,0,.12-0.14,5.58,5.58,0,0,1,1.4-3.59,4.482,4.482,0,0,1,6.78,0,5.527,5.527,0,0,1,1.4,3.59,0.129,0.129,0,0,0,.13.14h0.95a0.142,0.142,0,0,0,.13-0.14,7.139,7.139,0,0,0-.47-2.43h0Zm-5.53-4.04a2.62,2.62,0,0,1-1.94-.89,3.262,3.262,0,0,1,0-4.28,2.578,2.578,0,0,1,3.88,0,3.262,3.262,0,0,1,0,4.28,2.62,2.62,0,0,1-1.94.89h0Zm0,0" transform="translate(-8019 -1865)"/>
</svg>
