<svg xmlns="http://www.w3.org/2000/svg" width="16" height="16" viewBox="0 0 16 16">
  <metadata><?xpacket begin="﻿" id="W5M0MpCehiHzreSzNTczkc9d"?>
<x:xmpmeta xmlns:x="adobe:ns:meta/" x:xmptk="Adobe XMP Core 5.6-c138 79.159824, 2016/09/14-01:09:01        ">
   <rdf:RDF xmlns:rdf="http://www.w3.org/1999/02/22-rdf-syntax-ns#">
      <rdf:Description rdf:about=""/>
   </rdf:RDF>
</x:xmpmeta>
                                                                                                    
                                                                                                    
                                                                                                    
                                                                                                    
                                                                                                    
                                                                                                    
                                                                                                    
                                                                                                    
                                                                                                    
                                                                                                    
                                                                                                    
                                                                                                    
                                                                                                    
                                                                                                    
                                                                                                    
                                                                                                    
                                                                                                    
                                                                                                    
                                                                                                    
                                                                                                    
                           
<?xpacket end="w"?></metadata>
<defs>
    <style>
      .cls-1 {
        fill: #fff;
        fill-rule: evenodd;
      }
    </style>
  </defs>
  <path id="菜单" class="cls-1" d="M1307.84,188h-15.68a0.159,0.159,0,0,0-.16.159v1.273a0.159,0.159,0,0,0,.16.159h15.68a0.159,0.159,0,0,0,.16-0.159v-1.273a0.159,0.159,0,0,0-.16-0.159h0Zm0,12.409h-15.68a0.159,0.159,0,0,0-.16.159v1.273a0.159,0.159,0,0,0,.16.159h15.68a0.159,0.159,0,0,0,.16-0.159v-1.273a0.159,0.159,0,0,0-.16-0.159h0Zm0-6.2h-15.68a0.158,0.158,0,0,0-.16.159v1.272a0.159,0.159,0,0,0,.16.16h15.68a0.159,0.159,0,0,0,.16-0.16v-1.272a0.158,0.158,0,0,0-.16-0.159h0Zm0,0" transform="translate(-1292 -187)"/>
</svg>
